<svg width="14" height="15" viewBox="0 0 14 15" fill="none" xmlns="http://www.w3.org/2000/svg">
<g clip-path="url(#clip0_112_30)">
<path d="M13.2273 14.5001C13.654 14.5001 14 14.1541 14 13.7274V1.27268C14 0.845898 13.654 0.5 13.2273 0.5H0.77268C0.345844 0.5 0 0.845898 0 1.27268V13.7274C0 14.1541 0.345844 14.5001 0.77268 14.5001H13.2273Z" fill="#395185"/>
<path d="M9.65967 14.4998V9.07827H11.4795L11.752 6.96541H9.65967V5.61638C9.65967 5.00465 9.82959 4.58777 10.7068 4.58777L11.8257 4.58727V2.69755C11.6321 2.67179 10.968 2.61426 10.1953 2.61426C8.58216 2.61426 7.47781 3.59891 7.47781 5.4072V6.96541H5.65332V9.07827H7.47781V14.4998H9.65967Z" fill="white"/>
</g>
<defs>
<clipPath id="clip0_112_30">
<rect width="14" height="14" fill="white" transform="translate(0 0.5)"/>
</clipPath>
</defs>
</svg>
