<svg width="14" height="14" viewBox="0 0 14 14" fill="none" xmlns="http://www.w3.org/2000/svg">
<path d="M13.8638 5.62902H13.2999V5.59997H6.99997V8.39996H10.956C10.3788 10.0299 8.82801 11.1999 6.99997 11.1999C4.68053 11.1999 2.79999 9.3194 2.79999 6.99997C2.79999 4.68053 4.68053 2.79999 6.99997 2.79999C8.07061 2.79999 9.04466 3.20388 9.7863 3.86363L11.7662 1.88369C10.516 0.718546 8.84376 0 6.99997 0C3.13423 0 0 3.13423 0 6.99997C0 10.8657 3.13423 13.9999 6.99997 13.9999C10.8657 13.9999 13.9999 10.8657 13.9999 6.99997C13.9999 6.53062 13.9516 6.07247 13.8638 5.62902Z" fill="#FFC107"/>
<path d="M0.807129 3.74183L3.10697 5.42847C3.72926 3.88778 5.23636 2.79999 7 2.79999C8.07064 2.79999 9.04469 3.20388 9.78633 3.86363L11.7663 1.88369C10.5161 0.718547 8.84379 0 7 0C4.31131 0 1.97962 1.51794 0.807129 3.74183Z" fill="#FF3D00"/>
<path d="M6.99979 14C8.80788 14 10.4508 13.3081 11.6929 12.1828L9.52642 10.3495C8.80002 10.902 7.91239 11.2008 6.99979 11.2C5.17909 11.2 3.63315 10.0391 3.05076 8.41895L0.768066 10.1777C1.92656 12.4446 4.27925 14 6.99979 14Z" fill="#4CAF50"/>
<path d="M13.8638 5.62915H13.3V5.6001H7V8.40008H10.956C10.68 9.17582 10.1827 9.85369 9.52559 10.3499L9.52664 10.3492L11.6931 12.1825C11.5398 12.3218 14 10.5001 14 7.00009C14 6.53074 13.9517 6.0726 13.8638 5.62915Z" fill="#1976D2"/>
</svg>
